# xmcd
#
# Track frame offsets:
#	150
#	45816
#	66515
#	87363
#	114712
#	149825
#	181450
#	209377
#
# Disc length: 3721 seconds
#
# Revision: 1
# Processed by: cddbd v1.5.1PL2 Copyright (c) Steve Scherf et al.
# Submitted via: audiograbber 1.83.01
#
DISCID=790e8708
DTITLE=Gino Samele and Talkin' Blue - Live
DYEAR=2003
DGENRE=Blues
TTITLE0=Worried Life Blues
TTITLE1=Come On
TTITLE2=Ain't No Sunshine When She's Gone
TTITLE3=Purple Rain
TTITLE4=The Thrill Is Gone
TTITLE5=Help The Poor
TTITLE6=Rock Me Baby
TTITLE7=Tin Pan Alley
EXTD=Live-Aufnahmen im Jazzclub "In der Mitte" in Reutlingen
EXTT0=
EXTT1=
EXTT2=
EXTT3=
EXTT4=
EXTT5=
EXTT6=
EXTT7=
PLAYORDER=
